<?xml version="1.0" encoding="UTF-8"?><svg id="Layer_1" xmlns="http://www.w3.org/2000/svg" viewBox="0 0 209.02 209.02"><defs><style>.cls-1{fill:#fff;}.cls-2{fill:#ff4a04;}.cls-3{fill:#1b1b50;}.cls-4{fill:#1d1d1b;}</style></defs><circle class="cls-2" cx="104.51" cy="104.51" r="104.51"/><g><path class="cls-1" d="m43.06,99.97l2.19-7.08c.28-1.03,1.68-1.03,2-.05l2.28,7.08c.47,1.44,1.58,2.56,3.03,2.98l7.08,2.19c.98.28.98,1.68,0,2l-7.04,2.28c-1.44.47-2.56,1.58-2.98,3.03l-2.19,7.13c-.33.98-1.68.98-2,0l-2.28-7.08c-.47-1.4-1.58-2.52-3.03-2.98l-7.13-2.19c-.98-.28-.98-1.68,0-2l7.08-2.28c1.4-.47,2.52-1.58,2.98-3.03Z"/><path class="cls-3" d="m71.94,135.64h0s-10.7,22.71-8.08,42.42l22.39-16.04-.03-.05c-6.52-8.39-11.11-17.37-14.28-26.33Z"/><g><path class="cls-4" d="m104.39,166.86s-.02-.02-.04-.03c-.01.01-.02.02-.04.03h.07Z"/><path class="cls-1" d="m131.08,71.47h-53.45s-2.03,8.85-2.23,21.76h14.22c.04-2.77.18-5.32.36-7.59h28.75c1.14,14.34.52,39.96-14.38,60.3-5.66-7.73-9.25-16.21-11.48-24.55h-14.66c3.55,15.6,11.1,32.19,26.14,45.44,40.45-35.64,26.73-95.36,26.73-95.36Z"/></g><path class="cls-4" d="m104.33,22.97s.02.02.04.03c.01-.01.02-.02.04-.03h-.07Z"/><path class="cls-3" d="m136.84,135.64h0s10.7,22.71,8.08,42.42l-22.39-16.04.03-.05c6.52-8.39,11.11-17.37,14.28-26.33Z"/><circle class="cls-1" cx="148.82" cy="66.5" r="5.97"/><path class="cls-3" d="m128.57,61.19c-4.11-13.38-11.46-26.98-24.19-38.19-12.73,11.22-20.09,24.82-24.2,38.19h48.4Z"/></g></svg>