<?xml version="1.0" encoding="utf-8"?>
<!-- Generator: Adobe Illustrator 27.5.0, SVG Export Plug-In . SVG Version: 6.00 Build 0)  -->
<svg version="1.1" id="Layer_1" xmlns="http://www.w3.org/2000/svg" xmlns:xlink="http://www.w3.org/1999/xlink" x="0px" y="0px"
	 width="209px" height="209px" viewBox="0 0 209 209" style="enable-background:new 0 0 209 209;" xml:space="preserve">
<style type="text/css">
	.st0{fill:#1B1B50;}
	.st1{fill:#FFFFFF;}
	.st2{fill:#FF4A04;}
</style>
<g>
	<g id="XMLID_00000044135646404721033510000006655606399721908103_">
		<g>
			<path class="st0" d="M86.3,162v0.1l-22.4,16c-2.6-19.7,8.1-42.4,8.1-42.4C75.2,144.7,79.8,153.6,86.3,162z"/>
			<path class="st0" d="M136.8,135.7c0-0.1,10.7,22.7,8.1,42.4l-22.4-16V162C129,153.6,133.6,144.6,136.8,135.7z"/>
			<path class="st0" d="M128.6,61.2H80.2c4.1-13.4,11.5-27,24.2-38.2C117.1,34.2,124.5,47.8,128.6,61.2z"/>
			<circle class="st1" cx="148.8" cy="66.5" r="6"/>
			<path class="st1" d="M131.1,71.5c0,0,13.7,59.7-26.8,95.3c-15-13.2-22.5-29.8-26.1-45.4h14.7c2.3,8.4,5.8,16.9,11.5,24.6
				c14.9-20.3,15.5-46,14.4-60.3H90c-0.2,2.3-0.4,4.8-0.4,7.6H75.4c0.2-13,2.2-21.8,2.2-21.8H131.1z"/>
			<path class="st2" d="M104.4,23C91.7,34.2,84.3,47.8,80.2,61.2h48.4C124.5,47.8,117.1,34.2,104.4,23z M104.3,166.8
				c40.5-35.6,26.8-95.3,26.8-95.3H77.6c0,0-2,8.8-2.2,21.8h14.2c0-2.8,0.2-5.3,0.4-7.6h28.8c1.1,14.3,0.5,40-14.4,60.3
				c-5.7-7.7-9.2-16.2-11.5-24.6H78.2C81.8,137,89.3,153.6,104.3,166.8z M104.5,0C162.2,0,209,46.8,209,104.5S162.2,209,104.5,209
				S0,162.2,0,104.5S46.8,0,104.5,0z M154.8,66.5c0-3.3-2.7-6-6-6s-6,2.7-6,6c0,3.3,2.7,6,6,6S154.8,69.8,154.8,66.5z M144.9,178.1
				c2.6-19.7-8.1-42.5-8.1-42.4c-3.2,8.9-7.8,17.9-14.3,26.3v0.1L144.9,178.1z M86.3,162.1V162c-6.5-8.4-11.1-17.3-14.3-26.3
				c0,0-10.7,22.7-8.1,42.4L86.3,162.1z M59.7,107.1c1-0.3,1-1.7,0-2l-7.1-2.2c-1.4-0.4-2.5-1.6-3-3l-2.3-7.1
				c-0.3-0.9-1.7-0.9-2,0.1l-2.2,7.1c-0.5,1.4-1.6,2.5-2.9,2.9l-7.1,2.3c-1,0.3-1,1.7,0,2l7.1,2.2c1.4,0.5,2.5,1.6,3,3l2.3,7.1
				c0.3,1,1.7,1,2,0l2.2-7.1c0.4-1.4,1.6-2.5,3-3L59.7,107.1z"/>
			<path class="st1" d="M59.7,105.1c1,0.3,1,1.7,0,2l-7,2.3c-1.4,0.5-2.6,1.6-3,3l-2.2,7.1c-0.3,1-1.7,1-2,0l-2.3-7.1
				c-0.5-1.4-1.6-2.5-3-3l-7.1-2.2c-1-0.3-1-1.7,0-2l7.1-2.3c1.3-0.4,2.4-1.5,2.9-2.9l2.2-7.1c0.3-1,1.7-1,2-0.1l2.3,7.1
				c0.5,1.4,1.6,2.6,3,3L59.7,105.1z"/>
		</g>
		<g>
		</g>
	</g>
</g>
</svg>
